<svg width="0" height="0" class="hidden">
  <symbol fill="none" xmlns="http://www.w3.org/2000/svg" viewBox="0 0 48 48" id="messenger_icon">
    <path fill-rule="evenodd" clip-rule="evenodd" d="M0 24C0 37.2548 10.7452 48 24 48C37.2548 48 48 37.2548 48 24C48 10.7452 37.2548 0 24 0C10.7452 0 0 10.7452 0 24ZM14.8573 38.3643V33.2415C11.6489 30.7999 9.6 27.0813 9.6 22.9168C9.6 15.5621 15.99 9.6 23.8726 9.6C31.7556 9.6 38.1451 15.5621 38.1451 22.9168C38.1451 30.271 31.7556 36.2336 23.8726 36.2336C22.402 36.2336 20.9826 36.0259 19.6474 35.6411L14.8573 38.3643Z" fill="black"></path>
    <path d="M22.3485 19.2694L14.6514 27.419L21.6564 23.5756L25.3164 27.419L32.9701 19.2694L26.0428 23.0455L22.3485 19.2694Z" fill="black"></path>
  </symbol>
  <symbol fill="none" xmlns="http://www.w3.org/2000/svg" viewBox="0 0 48 48" id="whatsapp_icon">
    <path fill-rule="evenodd" clip-rule="evenodd" d="M0 24C0 37.2548 10.7452 48 24 48C37.2548 48 48 37.2548 48 24C48 10.7452 37.2548 0 24 0C10.7452 0 0 10.7452 0 24ZM39.0621 23.0815C39.059 30.9483 32.6595 37.3493 24.7911 37.3525H24.7852C22.3967 37.3517 20.0498 36.7524 17.9653 35.6155L10.4 37.6L12.4246 30.2048C11.1757 28.0405 10.5186 25.5855 10.5196 23.0702C10.5228 15.2017 16.9248 8.8 24.7909 8.8C28.6086 8.80165 32.1918 10.2879 34.8862 12.9854C37.5806 15.6828 39.0637 19.2683 39.0621 23.0815Z" fill="currentColor"></path>
    <path fill-rule="evenodd" clip-rule="evenodd" d="M13.8265 34.2096L18.3159 33.0319L18.749 33.289C20.5702 34.3697 22.6578 34.9415 24.7863 34.9424H24.7911C31.3289 34.9424 36.6499 29.6212 36.6526 23.0807C36.6538 19.9112 35.4212 16.9311 33.1817 14.689C30.9422 12.4469 27.964 11.2115 24.7958 11.2104C18.2529 11.2104 12.9318 16.5311 12.9292 23.0711C12.9283 25.3124 13.5554 27.4951 14.7428 29.3836L15.0248 29.8324L13.8265 34.2096ZM31.4924 26.1541C31.7411 26.2743 31.9091 26.3554 31.9808 26.4751C32.0699 26.6238 32.0699 27.3378 31.7729 28.1709C31.4756 29.0038 30.0511 29.764 29.3659 29.8663C28.7516 29.9582 27.9742 29.9965 27.12 29.725C26.602 29.5607 25.9379 29.3413 25.0871 28.9739C21.7442 27.5304 19.485 24.2904 19.0581 23.678C19.0282 23.6351 19.0072 23.6051 18.9956 23.5896L18.9927 23.5857C18.804 23.3339 17.5395 21.6468 17.5395 19.9008C17.5395 18.2583 18.3464 17.3973 18.7178 17.001C18.7432 16.9739 18.7666 16.9489 18.7876 16.926C19.1144 16.569 19.5008 16.4798 19.7385 16.4798C19.9762 16.4798 20.2141 16.482 20.4219 16.4924C20.4475 16.4937 20.4742 16.4935 20.5018 16.4934C20.7096 16.4921 20.9686 16.4906 21.2242 17.1045C21.3225 17.3408 21.4664 17.691 21.6181 18.0603C21.9249 18.8074 22.264 19.6328 22.3236 19.7522C22.4128 19.9307 22.4722 20.1389 22.3533 20.377C22.3355 20.4127 22.319 20.4464 22.3032 20.4785C22.214 20.6608 22.1483 20.7949 21.9968 20.9718C21.9372 21.0414 21.8756 21.1164 21.814 21.1913C21.6914 21.3407 21.5687 21.4901 21.4619 21.5965C21.2834 21.7743 21.0975 21.9673 21.3055 22.3243C21.5135 22.6813 22.2292 23.8489 23.2893 24.7945C24.4288 25.8109 25.4192 26.2405 25.9212 26.4583C26.0192 26.5008 26.0986 26.5352 26.1569 26.5644C26.5133 26.7429 26.7214 26.7131 26.9294 26.4751C27.1374 26.2372 27.8208 25.4339 28.0585 25.0769C28.2961 24.7201 28.534 24.7795 28.8608 24.8985C29.1877 25.0176 30.9408 25.8801 31.2974 26.0586C31.367 26.0935 31.4321 26.1249 31.4924 26.1541Z" fill="currentColor"></path>
  </symbol>
  <symbol fill="currentColor" xmlns="http://www.w3.org/2000/svg" viewBox="0 0 48 48" id="github_icon">
    <path d="M24.0432 0.179932C10.8147 0.179932 0.0876465 11.0878 0.0876465 24.5445C0.0876465 35.3096 6.95165 44.4426 16.4699 47.6643C17.6672 47.8899 18.1067 47.1358 18.1067 46.4922C18.1067 45.9112 18.0845 43.9919 18.0742 41.956C11.4097 43.4299 10.0034 39.0812 10.0034 39.0812C8.9137 36.265 7.34358 35.5161 7.34358 35.5161C5.17009 34.0039 7.50742 34.035 7.50742 34.035C9.91297 34.2065 11.1796 36.5458 11.1796 36.5458C13.3162 40.2707 16.7837 39.1938 18.1507 38.5712C18.3657 36.9969 18.9866 35.9212 19.6716 35.3132C14.3508 34.6971 8.7574 32.6079 8.7574 23.2719C8.7574 20.6118 9.6932 18.4383 11.2256 16.732C10.9769 16.1179 10.1569 13.6402 11.4577 10.2841C11.4577 10.2841 13.4693 9.62928 18.0472 12.7816C19.9581 12.2418 22.0074 11.971 24.0432 11.9618C26.0791 11.971 28.13 12.2418 30.0444 12.7816C34.6167 9.62928 36.6256 10.2841 36.6256 10.2841C37.9295 13.6402 37.1091 16.1179 36.8604 16.732C38.3964 18.4383 39.3259 20.6118 39.3259 23.2719C39.3259 32.6301 33.7218 34.6906 28.3874 35.2938C29.2467 36.0499 30.0123 37.5327 30.0123 39.8059C30.0123 43.0655 29.9845 45.6893 29.9845 46.4922C29.9845 47.1406 30.4157 47.9003 31.63 47.6611C41.1431 44.4357 47.9984 35.3059 47.9984 24.5445C47.9984 11.0878 37.273 0.179932 24.0432 0.179932Z" ></path>
    <path d="M9.16085 35.1623C9.10809 35.2838 8.92085 35.3197 8.75027 35.2366C8.57652 35.1571 8.47893 34.9921 8.53526 34.8706C8.58683 34.746 8.77447 34.7117 8.94782 34.7944C9.12197 34.8743 9.22115 35.0409 9.16085 35.1623Z"></path>
    <path d="M10.1312 36.263C10.0169 36.3707 9.79358 36.3207 9.64205 36.1504C9.48535 35.9806 9.456 35.7534 9.57183 35.6441C9.68965 35.5363 9.90624 35.5868 10.0633 35.7566C10.22 35.9285 10.2506 36.1541 10.1312 36.263Z"></path>
    <path d="M11.0757 37.6662C10.929 37.7699 10.689 37.6726 10.5406 37.456C10.3938 37.2393 10.3938 36.9795 10.5438 36.8754C10.6925 36.7713 10.929 36.8649 11.0793 37.0799C11.2257 37.2998 11.2257 37.5601 11.0757 37.6662Z"></path>
    <path d="M12.3696 39.0219C12.2383 39.1692 11.9587 39.1297 11.754 38.9287C11.5445 38.7322 11.4862 38.4534 11.6179 38.3062C11.7508 38.1585 12.0321 38.2001 12.2383 38.3994C12.4462 38.5955 12.5097 38.8763 12.3696 39.0219Z"></path>
    <path d="M14.1548 39.8091C14.0969 40 13.8275 40.0867 13.5562 40.0056C13.2852 39.9221 13.1079 39.6986 13.1626 39.5057C13.219 39.3137 13.4895 39.2233 13.7628 39.31C14.0334 39.3932 14.2111 39.6151 14.1548 39.8091Z"></path>
    <path d="M16.1152 39.9551C16.122 40.156 15.8919 40.3227 15.6071 40.3259C15.3207 40.3327 15.089 40.1701 15.0858 39.9724C15.0858 39.7695 15.3107 39.6045 15.5972 39.5996C15.882 39.594 16.1152 39.7554 16.1152 39.9551Z"></path>
    <path d="M17.9397 39.6392C17.9738 39.8353 17.7759 40.0366 17.493 40.0899C17.2149 40.1419 16.9575 40.0209 16.9222 39.8264C16.8877 39.6255 17.0892 39.4241 17.3669 39.3721C17.6501 39.3221 17.9036 39.4399 17.9397 39.6392Z"></path>
  </symbol>
  <symbol fill="none" xmlns="http://www.w3.org/2000/svg" viewBox="0 0 48 48" id="gmail_icon">
    <path fill-rule="evenodd" clip-rule="evenodd" d="M24 0C10.7452 0 0 10.7452 0 24C0 37.2548 10.7452 48 24 48C37.2548 48 48 37.2548 48 24C48 10.7452 37.2548 0 24 0ZM23.9639 26.0193L14.9987 19.5115V33.23H13.5009C12.6664 33.23 12.0031 32.5667 12.0031 31.7322V16.562C12.0031 16.4985 12.007 16.4389 12.0144 16.3831C12.0416 16.1451 12.1284 15.9122 12.2813 15.7061C12.7734 15.0428 13.7363 14.893 14.421 15.3851L23.9853 22.3391L33.6138 15.2996C34.2771 14.8074 35.2186 14.9572 35.7107 15.6419C35.9723 15.9945 36.0525 16.4256 35.9674 16.8261V31.7536C35.9674 32.5667 35.3041 33.23 34.4697 33.23H32.9719V19.4788L23.9639 26.0193Z" fill="currentColor"></path>
  </symbol>
  <symbol fill="none" xmlns="http://www.w3.org/2000/svg" viewBox="0 0 48 48" id="linked_in_icon">
    <path fill-rule="evenodd" clip-rule="evenodd" d="M24 0C10.7452 0 0 10.7452 0 24C0 37.2548 10.7452 48 24 48C37.2548 48 48 37.2548 48 24C48 10.7452 37.2548 0 24 0ZM11.5216 19.8778H16.9605V36.2196H11.5216V19.8778ZM17.3188 14.8227C17.2835 13.2204 16.1377 12 14.277 12C12.4164 12 11.2 13.2204 11.2 14.8227C11.2 16.3918 12.3805 17.6473 14.2064 17.6473H14.2412C16.1377 17.6473 17.3188 16.3918 17.3188 14.8227ZM30.3131 19.4941C33.8922 19.4941 36.5754 21.8303 36.5754 26.8497L36.5752 36.2196H31.1365V27.4767C31.1365 25.2807 30.3494 23.7822 28.3805 23.7822C26.8779 23.7822 25.9829 24.7924 25.5898 25.7682C25.446 26.1178 25.4107 26.605 25.4107 27.0934V36.22H19.9711C19.9711 36.22 20.0428 21.4117 19.9711 19.8783H25.4107V22.1929C26.1325 21.0802 27.4254 19.4941 30.3131 19.4941Z" fill="currentColor"></path>
  </symbol>
</svg>